<svg width="464" height="464" viewBox="0 0 464 464" fill="none" xmlns="http://www.w3.org/2000/svg">
<path d="M134.7 0.333313H329.3C403.433 0.333313 463.667 60.5666 463.667 134.7V329.3C463.667 364.936 449.51 399.113 424.312 424.312C399.113 449.51 364.936 463.667 329.3 463.667H134.7C60.5666 463.667 0.333252 403.433 0.333252 329.3V134.7C0.333252 99.0637 14.4897 64.887 39.6883 39.6884C64.887 14.4898 99.0637 0.333313 134.7 0.333313ZM130.067 46.6666C107.948 46.6666 86.7344 55.4534 71.0939 71.0939C55.4533 86.7345 46.6666 107.948 46.6666 130.067V333.933C46.6666 380.035 83.9649 417.333 130.067 417.333H333.933C356.052 417.333 377.265 408.547 392.906 392.906C408.546 377.265 417.333 356.052 417.333 333.933V130.067C417.333 83.965 380.035 46.6666 333.933 46.6666H130.067ZM353.625 81.4166C361.305 81.4166 368.671 84.4676 374.102 89.8983C379.532 95.3291 382.583 102.695 382.583 110.375C382.583 118.055 379.532 125.421 374.102 130.852C368.671 136.282 361.305 139.333 353.625 139.333C345.945 139.333 338.579 136.282 333.148 130.852C327.718 125.421 324.667 118.055 324.667 110.375C324.667 102.695 327.718 95.3291 333.148 89.8983C338.579 84.4676 345.945 81.4166 353.625 81.4166ZM232 116.167C262.721 116.167 292.183 128.37 313.906 150.093C335.629 171.816 347.833 201.279 347.833 232C347.833 262.721 335.629 292.184 313.906 313.907C292.183 335.629 262.721 347.833 232 347.833C201.279 347.833 171.816 335.629 150.093 313.907C128.37 292.184 116.167 262.721 116.167 232C116.167 201.279 128.37 171.816 150.093 150.093C171.816 128.37 201.279 116.167 232 116.167ZM232 162.5C213.567 162.5 195.89 169.822 182.856 182.856C169.822 195.89 162.5 213.567 162.5 232C162.5 250.433 169.822 268.11 182.856 281.144C195.89 294.178 213.567 301.5 232 301.5C250.432 301.5 268.11 294.178 281.144 281.144C294.178 268.11 301.5 250.433 301.5 232C301.5 213.567 294.178 195.89 281.144 182.856C268.11 169.822 250.432 162.5 232 162.5Z" fill="black"/>
</svg>
