<svg width="496" height="496" viewBox="0 0 496 496" fill="none" xmlns="http://www.w3.org/2000/svg">
<path d="M248 0C111 0 0 111 0 248C0 385 111 496 248 496C385 496 496 385 496 248C496 111 385 0 248 0ZM389.4 389.4C351.6 427.2 301.4 448 248 448C194.6 448 144.4 427.2 106.6 389.4C68.8 351.6 48 301.4 48 248C48 194.6 68.8 144.4 106.6 106.6C144.4 68.8 194.6 48 248 48C301.4 48 351.6 68.8 389.4 106.6C427.2 144.4 448 194.6 448 248C448 301.4 427.2 351.6 389.4 389.4ZM328 144C304.2 144 275.3 173.3 272 215.4C271.3 224 282.8 227.3 286.9 219.9L296.4 202.9C304.1 189.2 315.6 181.3 327.9 181.3C340.2 181.3 351.7 189.2 359.4 202.9L368.9 219.9C373 227.3 384.5 223.9 383.8 215.4C380.7 173.3 351.8 144 328 144ZM127 219.9L136.5 202.9C144.2 189.2 155.7 181.3 168 181.3C180.3 181.3 191.8 189.2 199.5 202.9L209 219.9C213.1 227.3 224.6 223.9 223.9 215.4C220.6 173.3 191.7 144 167.9 144C144.1 144 115.2 173.3 111.9 215.4C111.3 223.9 122.8 227.3 127 219.9ZM362.4 280H133.6C125.4 280 119.1 287 120.1 295C127.6 354.2 179 400 241.2 400H254.8C317 400 368.4 354.2 375.9 295C376.9 287 370.6 280 362.4 280Z" fill="black"/>
</svg>
