<svg width="1075" height="726" viewBox="0 0 1075 726" fill="none" xmlns="http://www.w3.org/2000/svg">
<path d="M699.7 46.3333H894.3C968.433 46.3333 1028.67 106.567 1028.67 180.7V375.3C1028.67 410.936 1014.51 445.113 989.311 470.312C964.113 495.51 929.936 509.667 894.3 509.667H699.7C625.567 509.667 565.333 449.433 565.333 375.3V180.7C565.333 145.064 579.49 110.887 604.688 85.6884C629.887 60.4898 664.064 46.3333 699.7 46.3333ZM695.067 92.6667C672.948 92.6667 651.734 101.453 636.094 117.094C620.453 132.735 611.667 153.948 611.667 176.067V379.933C611.667 426.035 648.965 463.333 695.067 463.333H898.933C921.052 463.333 942.265 454.547 957.906 438.906C973.547 423.266 982.333 402.052 982.333 379.933V176.067C982.333 129.965 945.035 92.6667 898.933 92.6667H695.067ZM918.625 127.417C926.305 127.417 933.671 130.468 939.102 135.898C944.532 141.329 947.583 148.695 947.583 156.375C947.583 164.055 944.532 171.421 939.102 176.852C933.671 182.282 926.305 185.333 918.625 185.333C910.945 185.333 903.579 182.282 898.148 176.852C892.717 171.421 889.667 164.055 889.667 156.375C889.667 148.695 892.717 141.329 898.148 135.898C903.579 130.468 910.945 127.417 918.625 127.417ZM797 162.167C827.721 162.167 857.183 174.371 878.906 196.093C900.629 217.816 912.833 247.279 912.833 278C912.833 308.721 900.629 338.184 878.906 359.907C857.183 381.629 827.721 393.833 797 393.833C766.279 393.833 736.816 381.629 715.093 359.907C693.37 338.184 681.167 308.721 681.167 278C681.167 247.279 693.37 217.816 715.093 196.093C736.816 174.371 766.279 162.167 797 162.167ZM797 208.5C778.567 208.5 760.89 215.822 747.856 228.856C734.822 241.89 727.5 259.567 727.5 278C727.5 296.433 734.822 314.11 747.856 327.144C760.89 340.178 778.567 347.5 797 347.5C815.432 347.5 833.11 340.178 846.144 327.144C859.178 314.11 866.5 296.433 866.5 278C866.5 259.567 859.178 241.89 846.144 228.856C833.11 215.822 815.432 208.5 797 208.5Z" fill="black"/>
<path d="M146.003 688.845C149.126 692.712 148.523 698.379 144.656 701.502C140.789 704.625 135.123 704.022 132 700.155L146.003 688.845ZM420.766 245.565C424.044 249.302 423.672 254.988 419.935 258.266L359.043 311.68C355.306 314.958 349.62 314.586 346.342 310.849C343.064 307.113 343.436 301.426 347.173 298.149L401.299 250.669L353.82 196.542C350.542 192.806 350.914 187.119 354.651 183.842C358.387 180.564 364.074 180.936 367.352 184.673L420.766 245.565ZM132 700.155C128.867 696.276 125.809 692.416 122.823 688.575L137.035 677.529C139.951 681.28 142.94 685.052 146.003 688.845L132 700.155ZM105.462 665.304C99.6726 657.202 94.2173 649.189 89.09 641.267L104.201 631.487C109.173 639.168 114.472 646.953 120.107 654.84L105.462 665.304ZM73.8797 616.375C68.8693 607.651 64.2678 599.044 60.0675 590.556L76.2003 582.573C80.2285 590.713 84.654 598.993 89.4884 607.41L73.8797 616.375ZM47.9702 563.764C44.1371 554.353 40.8163 545.098 37.9973 536.005L55.1901 530.675C57.8482 539.249 60.9922 548.017 64.6405 556.975L47.9702 563.764ZM30.6558 507.361C28.6384 497.321 27.2676 487.5 26.5283 477.905L44.4751 476.522C45.1557 485.355 46.4221 494.454 48.303 503.814L30.6558 507.361ZM26.3071 447.885C26.9773 437.651 28.426 427.726 30.6272 418.128L48.1718 422.151C46.1909 430.789 44.8777 439.76 44.2686 449.061L26.3071 447.885ZM39.8722 389.339C43.7791 380.02 48.4702 371.1 53.9026 362.593L69.0733 372.28C64.1849 379.935 59.9749 387.944 56.4725 396.298L39.8722 389.339ZM72.139 338.595C78.6941 331.254 85.8794 324.312 93.6537 317.775L105.238 331.552C98.0869 337.565 91.5221 343.913 85.5653 350.584L72.139 338.595ZM117.675 300.05C125.784 294.791 134.354 289.874 143.356 285.302L151.506 301.351C143.037 305.652 135.019 310.256 127.47 315.151L117.675 300.05ZM170.256 273.172C179.185 269.609 188.455 266.334 198.045 263.35L203.393 280.537C194.227 283.389 185.4 286.509 176.926 289.89L170.256 273.172ZM226.32 255.614C235.606 253.4 245.146 251.431 254.925 249.708L258.048 267.435C248.607 269.098 239.418 270.996 230.493 273.123L226.32 255.614ZM283.787 245.425C293.265 244.27 302.938 243.33 312.794 242.606L314.113 260.557C304.534 261.261 295.147 262.174 285.964 263.293L283.787 245.425ZM341.867 241.117C351.41 240.833 361.106 240.742 370.945 240.844L370.757 258.843C361.153 258.743 351.698 258.833 342.401 259.109L341.867 241.117ZM399.984 241.693C404.821 241.923 409.69 242.199 414.588 242.519L413.413 260.481C408.62 260.167 403.858 259.898 399.128 259.673L399.984 241.693ZM146.003 688.845C149.126 692.712 148.523 698.379 144.656 701.502C140.789 704.625 135.123 704.022 132 700.155L146.003 688.845ZM420.766 245.565C424.044 249.302 423.672 254.988 419.935 258.266L359.043 311.68C355.306 314.958 349.62 314.586 346.342 310.849C343.064 307.113 343.436 301.426 347.173 298.149L401.299 250.669L353.82 196.542C350.542 192.806 350.914 187.119 354.651 183.842C358.387 180.564 364.074 180.936 367.352 184.673L420.766 245.565ZM132 700.155C128.867 696.276 125.809 692.416 122.823 688.575L137.035 677.529C139.951 681.28 142.94 685.052 146.003 688.845L132 700.155ZM105.462 665.304C99.6726 657.202 94.2173 649.189 89.09 641.267L104.201 631.487C109.173 639.168 114.472 646.953 120.107 654.84L105.462 665.304ZM73.8797 616.375C68.8693 607.651 64.2678 599.044 60.0675 590.556L76.2003 582.573C80.2285 590.713 84.654 598.993 89.4884 607.41L73.8797 616.375ZM47.9702 563.764C44.1371 554.353 40.8163 545.098 37.9973 536.005L55.1901 530.675C57.8482 539.249 60.9922 548.017 64.6405 556.975L47.9702 563.764ZM30.6558 507.361C28.6384 497.321 27.2676 487.5 26.5283 477.905L44.4751 476.522C45.1557 485.355 46.4221 494.454 48.303 503.814L30.6558 507.361ZM26.3071 447.885C26.9773 437.651 28.426 427.726 30.6272 418.128L48.1718 422.151C46.1909 430.789 44.8777 439.76 44.2686 449.061L26.3071 447.885ZM39.8722 389.339C43.7791 380.02 48.4702 371.1 53.9026 362.593L69.0733 372.28C64.1849 379.935 59.9749 387.944 56.4725 396.298L39.8722 389.339ZM72.139 338.595C78.6941 331.254 85.8794 324.312 93.6537 317.775L105.238 331.552C98.0869 337.565 91.5221 343.913 85.5653 350.584L72.139 338.595ZM117.675 300.05C125.784 294.791 134.354 289.874 143.356 285.302L151.506 301.351C143.037 305.652 135.019 310.256 127.47 315.151L117.675 300.05ZM170.256 273.172C179.185 269.609 188.455 266.334 198.045 263.35L203.393 280.537C194.227 283.389 185.4 286.509 176.926 289.89L170.256 273.172ZM226.32 255.614C235.606 253.4 245.146 251.431 254.925 249.708L258.048 267.435C248.607 269.098 239.418 270.996 230.493 273.123L226.32 255.614ZM283.787 245.425C293.265 244.27 302.938 243.33 312.794 242.606L314.113 260.557C304.534 261.261 295.147 262.174 285.964 263.293L283.787 245.425ZM341.867 241.117C351.41 240.833 361.106 240.742 370.945 240.844L370.757 258.843C361.153 258.743 351.698 258.833 342.401 259.109L341.867 241.117ZM399.984 241.693C404.821 241.923 409.69 242.199 414.588 242.519L413.413 260.481C408.62 260.167 403.858 259.898 399.128 259.673L399.984 241.693Z" fill="black"/>
</svg>
