<svg width="941" height="722" viewBox="0 0 941 722" fill="none" xmlns="http://www.w3.org/2000/svg">
<path d="M433.262 9.64873C427.461 4.82304 420.461 1.66065 413.005 0.49817C405.549 -0.66431 397.918 0.216635 390.923 3.04723L25.7828 150.46C17.9762 153.673 11.3311 159.184 6.72903 166.262C2.12698 173.339 -0.214429 181.648 0.0154404 190.087C0.24531 198.526 3.03559 206.695 8.0161 213.512C12.9966 220.328 19.9319 225.469 27.9018 228.252L101.761 253.945L142.919 390.091C143.483 391.907 144.299 393.636 145.343 395.225C145.506 395.47 145.73 395.633 145.893 395.898C147.094 397.569 148.544 399.046 150.193 400.278C150.653 400.639 151.129 400.979 151.619 401.297C153.549 402.578 155.686 403.515 157.935 404.068L158.2 404.088L158.322 404.149C159.684 404.423 161.069 404.559 162.458 404.557L162.825 404.496C164.912 404.461 166.981 404.104 168.958 403.436C169.427 403.273 169.814 403.029 170.262 402.825C171.741 402.219 173.143 401.439 174.439 400.502C175.471 399.626 176.503 398.75 177.536 397.874L232.589 337.095L314.7 400.706C321.928 406.335 330.825 409.397 339.986 409.406C349.587 409.395 358.893 406.083 366.342 400.025C373.791 393.967 378.931 385.532 380.899 376.134L447.382 49.7875C448.886 42.4455 448.367 34.8329 445.88 27.7632C443.393 20.6935 439.032 14.4323 433.262 9.64873ZM170.527 260.424C167.705 263.24 165.777 266.827 164.985 270.734L158.669 301.378L142.695 248.546L225.519 205.412L170.527 260.424ZM339.68 368.493L242.634 293.309C238.573 290.176 233.481 288.688 228.372 289.141C223.263 289.594 218.512 291.955 215.067 295.754L197.422 315.213L203.657 284.915L347.973 140.599C351.397 137.154 353.478 132.599 353.84 127.755C354.202 122.911 352.822 118.097 349.948 114.181C347.074 110.265 342.896 107.505 338.167 106.397C333.437 105.29 328.468 105.908 324.154 108.141L117.042 215.966L41.1456 188.195L407.468 41.6782L339.68 368.493Z" fill="black"/>
<path d="M740.183 697.528C736.151 700.435 735.239 706.06 738.146 710.092C741.053 714.124 746.678 715.036 750.71 712.129L740.183 697.528ZM592.011 197.491C587.864 200.232 586.723 205.815 589.464 209.962L634.119 277.54C636.86 281.687 642.443 282.828 646.59 280.087C650.737 277.347 651.877 271.764 649.137 267.617L609.443 207.547L669.513 167.853C673.66 165.113 674.8 159.53 672.06 155.383C669.32 151.236 663.736 150.095 659.589 152.836L592.011 197.491ZM750.71 712.129C754.754 709.214 758.722 706.297 762.614 703.379L751.817 688.977C748.016 691.826 744.139 694.677 740.183 697.528L750.71 712.129ZM785.497 685.509C793.217 679.219 800.592 672.928 807.627 666.638L795.629 653.22C788.808 659.319 781.643 665.431 774.128 671.553L785.497 685.509ZM828.861 646.637C835.995 639.543 842.703 632.453 848.992 625.373L835.535 613.419C829.503 620.209 823.051 627.029 816.169 633.874L828.861 646.637ZM867.725 602.719C873.904 594.651 879.547 586.599 884.664 578.571L869.484 568.897C864.66 576.467 859.315 584.095 853.434 591.774L867.725 602.719ZM899.297 552.875C903.89 543.723 907.802 534.611 911.045 525.55L894.097 519.485C891.112 527.826 887.492 536.269 883.209 544.802L899.297 552.875ZM919.173 496.651C921.224 486.602 922.443 476.647 922.851 466.807L904.866 466.063C904.5 474.917 903.401 483.917 901.536 493.05L919.173 496.651ZM921.523 436.6C920.211 426.58 918.038 416.739 915.04 407.1L897.852 412.446C900.55 421.119 902.499 429.954 903.675 438.936L921.523 436.6ZM903.776 379.144C899.388 370.334 894.288 361.743 888.512 353.388L873.705 363.624C879.018 371.309 883.677 379.163 887.664 387.169L903.776 379.144ZM870.013 329.957C863.578 322.746 856.608 315.744 849.13 308.96L837.036 322.293C844.072 328.675 850.593 335.229 856.584 341.942L870.013 329.957ZM826.379 290.167C818.705 284.377 810.627 278.774 802.163 273.367L792.473 288.536C800.562 293.703 808.255 299.04 815.537 304.536L826.379 290.167ZM776.928 258.449C768.554 253.866 759.87 249.451 750.892 245.211L743.206 261.488C751.874 265.581 760.238 269.834 768.286 274.239L776.928 258.449ZM724.18 233.47C715.342 229.858 706.26 226.4 696.942 223.103L690.938 240.072C699.992 243.276 708.806 246.632 717.37 250.132L724.18 233.47ZM669.291 214.002C660.16 211.213 650.832 208.568 641.314 206.073L636.75 223.485C646.041 225.92 655.137 228.499 664.033 231.217L669.291 214.002ZM613.078 199.235C608.351 198.182 603.583 197.164 598.773 196.182L595.171 213.818C599.877 214.779 604.542 215.775 609.163 216.805L613.078 199.235ZM740.183 697.528C736.151 700.435 735.239 706.06 738.146 710.092C741.053 714.124 746.678 715.036 750.71 712.129L740.183 697.528ZM592.011 197.491C587.864 200.232 586.723 205.815 589.464 209.962L634.119 277.54C636.86 281.687 642.443 282.828 646.59 280.087C650.737 277.347 651.877 271.764 649.137 267.617L609.443 207.547L669.513 167.853C673.66 165.113 674.8 159.53 672.06 155.383C669.32 151.236 663.736 150.095 659.589 152.836L592.011 197.491ZM750.71 712.129C754.754 709.214 758.722 706.297 762.614 703.379L751.817 688.977C748.016 691.826 744.139 694.677 740.183 697.528L750.71 712.129ZM785.497 685.509C793.217 679.219 800.592 672.928 807.627 666.638L795.629 653.22C788.808 659.319 781.643 665.431 774.128 671.553L785.497 685.509ZM828.861 646.637C835.995 639.543 842.703 632.453 848.992 625.373L835.535 613.419C829.503 620.209 823.051 627.029 816.169 633.874L828.861 646.637ZM867.725 602.719C873.904 594.651 879.547 586.599 884.664 578.571L869.484 568.897C864.66 576.467 859.315 584.095 853.434 591.774L867.725 602.719ZM899.297 552.875C903.89 543.723 907.802 534.611 911.045 525.55L894.097 519.485C891.112 527.826 887.492 536.269 883.209 544.802L899.297 552.875ZM919.173 496.651C921.224 486.602 922.443 476.647 922.851 466.807L904.866 466.063C904.5 474.917 903.401 483.917 901.536 493.05L919.173 496.651ZM921.523 436.6C920.211 426.58 918.038 416.739 915.04 407.1L897.852 412.446C900.55 421.119 902.499 429.954 903.675 438.936L921.523 436.6ZM903.776 379.144C899.388 370.334 894.288 361.743 888.512 353.388L873.705 363.624C879.018 371.309 883.677 379.163 887.664 387.169L903.776 379.144ZM870.013 329.957C863.578 322.746 856.608 315.744 849.13 308.96L837.036 322.293C844.072 328.675 850.593 335.229 856.584 341.942L870.013 329.957ZM826.379 290.167C818.705 284.377 810.627 278.774 802.163 273.367L792.473 288.536C800.562 293.703 808.255 299.04 815.537 304.536L826.379 290.167ZM776.928 258.449C768.554 253.866 759.87 249.451 750.892 245.211L743.206 261.488C751.874 265.581 760.238 269.834 768.286 274.239L776.928 258.449ZM724.18 233.47C715.342 229.858 706.26 226.4 696.942 223.103L690.938 240.072C699.992 243.276 708.806 246.632 717.37 250.132L724.18 233.47ZM669.291 214.002C660.16 211.213 650.832 208.568 641.314 206.073L636.75 223.485C646.041 225.92 655.137 228.499 664.033 231.217L669.291 214.002ZM613.078 199.235C608.351 198.182 603.583 197.164 598.773 196.182L595.171 213.818C599.877 214.779 604.542 215.775 609.163 216.805L613.078 199.235Z" fill="black"/>
</svg>
