<svg width="449" height="411" viewBox="0 0 449 411" fill="none" xmlns="http://www.w3.org/2000/svg">
<path d="M433.649 10.4705C427.848 5.64482 420.848 2.48243 413.392 1.31995C405.936 0.157468 398.305 1.03841 391.31 3.86901L26.1698 151.282C18.3632 154.495 11.718 160.006 7.116 167.083C2.51395 174.161 0.172534 182.47 0.402403 190.909C0.632273 199.348 3.42256 207.517 8.40306 214.333C13.3836 221.15 20.3189 226.291 28.2888 229.074L102.148 254.767L143.306 390.913C143.87 392.729 144.686 394.457 145.73 396.047C145.893 396.291 146.117 396.455 146.28 396.719C147.481 398.391 148.931 399.868 150.58 401.1C151.04 401.46 151.516 401.8 152.006 402.119C153.936 403.4 156.073 404.337 158.322 404.89L158.587 404.91L158.709 404.971C160.071 405.245 161.456 405.381 162.845 405.379L163.212 405.318C165.299 405.283 167.368 404.925 169.345 404.258C169.814 404.095 170.201 403.851 170.649 403.647C172.128 403.04 173.53 402.261 174.826 401.324C175.858 400.448 176.89 399.571 177.923 398.696L232.976 337.917L315.087 401.528C322.315 407.157 331.212 410.218 340.373 410.228C349.974 410.217 359.28 406.904 366.729 400.846C374.178 394.788 379.318 386.353 381.286 376.956L447.769 50.6093C449.273 43.2673 448.754 35.6547 446.267 28.585C443.78 21.5152 439.419 15.2541 433.649 10.4705ZM170.914 261.246C168.092 264.062 166.164 267.649 165.372 271.556L159.056 302.2L143.082 249.367L225.906 206.234L170.914 261.246ZM340.067 369.315L243.021 294.131C238.96 290.998 233.868 289.509 228.759 289.962C223.65 290.416 218.899 292.777 215.454 296.576L197.809 316.034L204.044 285.737L348.36 141.421C351.784 137.976 353.865 133.42 354.227 128.577C354.589 123.733 353.209 118.919 350.335 115.003C347.461 111.087 343.283 108.326 338.554 107.219C333.824 106.112 328.855 106.73 324.541 108.963L117.429 216.788L41.5326 189.017L407.855 42.5L340.067 369.315Z" fill="black"/>
</svg>
