<svg width="1005" height="829" viewBox="0 0 1005 829" fill="none" xmlns="http://www.w3.org/2000/svg">
<path d="M145.339 791.91C148.462 795.777 147.859 801.444 143.992 804.567C140.125 807.69 134.459 807.087 131.336 803.22L145.339 791.91ZM420.102 348.63C423.38 352.367 423.008 358.053 419.271 361.331L358.379 414.745C354.642 418.023 348.956 417.651 345.678 413.914C342.4 410.178 342.772 404.491 346.509 401.214L400.635 353.734L353.156 299.607C349.878 295.871 350.25 290.184 353.987 286.907C357.724 283.629 363.41 284.001 366.688 287.737L420.102 348.63ZM131.336 803.22C128.203 799.341 125.145 795.481 122.159 791.64L136.372 780.594C139.287 784.345 142.276 788.117 145.339 791.91L131.336 803.22ZM104.798 768.369C99.0087 760.267 93.5534 752.254 88.4261 744.331L103.537 734.551C108.509 742.233 113.808 750.018 119.443 757.905L104.798 768.369ZM73.2158 719.44C68.2053 710.716 63.6039 702.109 59.4036 693.621L75.5364 685.638C79.5645 693.778 83.9901 702.058 88.8244 710.475L73.2158 719.44ZM47.3062 666.829C43.4731 657.418 40.1524 648.163 37.3333 639.07L54.5261 633.74C57.1842 642.314 60.3283 651.082 63.9766 660.04L47.3062 666.829ZM29.9918 610.426C27.9745 600.386 26.6036 590.565 25.8644 580.97L43.8112 579.587C44.4918 588.42 45.7581 597.519 47.6391 606.879L29.9918 610.426ZM25.6432 550.95C26.3134 540.715 27.7621 530.791 29.9633 521.193L47.5079 525.216C45.5269 533.854 44.2138 542.825 43.6047 552.126L25.6432 550.95ZM39.2083 492.404C43.1152 483.085 47.8062 474.165 53.2387 465.658L68.4093 475.345C63.5209 483 59.311 491.009 55.8085 499.363L39.2083 492.404ZM71.475 441.66C78.0301 434.319 85.2155 427.377 92.9898 420.84L104.574 434.617C97.4229 440.63 90.8582 446.978 84.9013 453.649L71.475 441.66ZM117.011 403.114C125.12 397.856 133.69 392.939 142.692 388.367L150.842 404.416C142.373 408.717 134.355 413.321 126.806 418.216L117.011 403.114ZM169.592 376.237C178.521 372.674 187.791 369.399 197.381 366.415L202.729 383.602C193.564 386.454 184.736 389.574 176.262 392.955L169.592 376.237ZM225.656 358.679C234.942 356.465 244.482 354.496 254.261 352.773L257.384 370.5C247.943 372.163 238.754 374.061 229.829 376.188L225.656 358.679ZM283.123 348.49C292.601 347.335 302.274 346.395 312.131 345.671L313.449 363.622C303.87 364.326 294.483 365.239 285.3 366.358L283.123 348.49ZM341.203 344.182C350.746 343.898 360.442 343.807 370.281 343.909L370.093 361.908C360.489 361.808 351.034 361.898 341.737 362.174L341.203 344.182ZM399.32 344.758C404.158 344.988 409.026 345.264 413.924 345.584L412.749 363.546C407.956 363.232 403.194 362.963 398.464 362.738L399.32 344.758ZM145.339 791.91C148.462 795.777 147.859 801.444 143.992 804.567C140.125 807.69 134.459 807.087 131.336 803.22L145.339 791.91ZM420.102 348.63C423.38 352.367 423.008 358.053 419.271 361.331L358.379 414.745C354.642 418.023 348.956 417.651 345.678 413.914C342.4 410.178 342.772 404.491 346.509 401.214L400.635 353.734L353.156 299.607C349.878 295.871 350.25 290.184 353.987 286.907C357.724 283.629 363.41 284.001 366.688 287.737L420.102 348.63ZM131.336 803.22C128.203 799.341 125.145 795.481 122.159 791.64L136.372 780.594C139.287 784.345 142.276 788.117 145.339 791.91L131.336 803.22ZM104.798 768.369C99.0087 760.267 93.5534 752.254 88.4261 744.331L103.537 734.551C108.509 742.233 113.808 750.018 119.443 757.905L104.798 768.369ZM73.2158 719.44C68.2053 710.716 63.6039 702.109 59.4036 693.621L75.5364 685.638C79.5645 693.778 83.9901 702.058 88.8244 710.475L73.2158 719.44ZM47.3062 666.829C43.4731 657.418 40.1524 648.163 37.3333 639.07L54.5261 633.74C57.1842 642.314 60.3283 651.082 63.9766 660.04L47.3062 666.829ZM29.9918 610.426C27.9745 600.386 26.6036 590.565 25.8644 580.97L43.8112 579.587C44.4918 588.42 45.7581 597.519 47.6391 606.879L29.9918 610.426ZM25.6432 550.95C26.3134 540.715 27.7621 530.791 29.9633 521.193L47.5079 525.216C45.5269 533.854 44.2138 542.825 43.6047 552.126L25.6432 550.95ZM39.2083 492.404C43.1152 483.085 47.8062 474.165 53.2387 465.658L68.4093 475.345C63.5209 483 59.311 491.009 55.8085 499.363L39.2083 492.404ZM71.475 441.66C78.0301 434.319 85.2155 427.377 92.9898 420.84L104.574 434.617C97.4229 440.63 90.8582 446.978 84.9013 453.649L71.475 441.66ZM117.011 403.114C125.12 397.856 133.69 392.939 142.692 388.367L150.842 404.416C142.373 408.717 134.355 413.321 126.806 418.216L117.011 403.114ZM169.592 376.237C178.521 372.674 187.791 369.399 197.381 366.415L202.729 383.602C193.564 386.454 184.736 389.574 176.262 392.955L169.592 376.237ZM225.656 358.679C234.942 356.465 244.482 354.496 254.261 352.773L257.384 370.5C247.943 372.163 238.754 374.061 229.829 376.188L225.656 358.679ZM283.123 348.49C292.601 347.335 302.274 346.395 312.131 345.671L313.449 363.622C303.87 364.326 294.483 365.239 285.3 366.358L283.123 348.49ZM341.203 344.182C350.746 343.898 360.442 343.807 370.281 343.909L370.093 361.908C360.489 361.808 351.034 361.898 341.737 362.174L341.203 344.182ZM399.32 344.758C404.158 344.988 409.026 345.264 413.924 345.584L412.749 363.546C407.956 363.232 403.194 362.963 398.464 362.738L399.32 344.758Z" fill="black"/>
<path d="M585.117 201.017L601.831 199.585C601.446 195.287 599.42 191.303 596.174 188.46C592.928 185.617 588.711 184.133 584.4 184.317C580.089 184.502 576.015 186.34 573.023 189.45C570.031 192.559 568.353 196.702 568.336 201.017H585.117ZM970.773 241.807L954.976 333.097L988.069 338.825L1003.84 247.535L970.773 241.807ZM814.349 447.5H710.328V481.063H814.349V447.5ZM689.944 428.772L671.776 218.604L638.325 221.49L656.516 431.659L689.944 428.772ZM954.976 333.097C943.632 398.656 884.517 447.5 814.349 447.5V481.063C899.956 481.063 973.793 421.344 988.069 338.825L954.976 333.097ZM814.573 86.1441L799.738 176.651L832.853 182.066L847.688 91.5812L814.573 86.1441ZM678.824 201.286L711.021 173.541L689.094 148.123L656.941 175.868L678.824 201.286ZM769.577 83.2801L780.227 42.2444L747.739 33.8314L737.088 74.8447L769.577 83.2801ZM796.292 34.1894L799.537 35.241L809.807 3.28948L806.563 2.23786L796.292 34.1894ZM753.444 124.54C760.434 111.472 765.849 97.6226 769.577 83.2801L737.088 74.8447C734.029 86.6283 729.583 98.0072 723.842 108.743L753.444 124.54ZM799.537 35.241C802.729 36.2085 805.626 37.967 807.957 40.3531C810.288 42.7392 811.979 45.6756 812.872 48.8897L845.361 40.4767C843.049 31.7842 838.577 23.817 832.361 17.3155C826.145 10.8141 818.387 5.98931 809.807 3.28948L799.537 35.241ZM780.227 42.2444C780.673 40.6327 781.465 39.1375 782.546 37.8624C783.628 36.5874 784.975 35.5631 786.492 34.8606L771.926 4.63198C760.023 10.36 751.073 20.9657 747.739 33.8314L780.227 42.2444ZM786.492 34.8606C789.555 33.398 793.059 33.158 796.292 34.1894L806.563 2.23786C795.136 -1.42449 782.74 -0.567675 771.926 4.63198L786.492 34.8606ZM834.688 217.799H950.59V184.236H834.688V217.799ZM623.58 450.991L601.831 199.585L568.403 202.472L590.107 453.877L623.58 450.991ZM601.898 453.385V201.017H568.336V453.385H601.898ZM590.107 453.877C590.039 453.064 590.163 452.246 590.428 451.474C590.693 450.702 591.115 449.994 591.669 449.394C592.222 448.794 592.894 448.316 593.642 447.99C594.39 447.664 595.198 447.497 596.014 447.5V481.063C612.258 481.063 624.967 467.146 623.58 450.991L590.107 453.877ZM847.688 91.5812C850.479 74.5702 849.686 57.1638 845.361 40.4767L812.872 48.9121C816.026 61.0689 816.605 73.7504 814.573 86.1441L847.688 91.5812ZM710.328 447.5C705.204 447.491 700.27 445.564 696.497 442.097C692.724 438.631 690.386 433.877 689.944 428.772L656.516 431.659C657.68 445.132 663.852 457.68 673.814 466.826C683.776 475.972 696.804 481.051 710.328 481.063V447.5ZM711.021 173.541C726.236 160.429 742.615 144.834 753.467 124.54L723.842 108.743C716.1 123.264 703.772 135.503 689.094 148.123L711.021 173.541ZM1003.84 247.535C1005.19 239.771 1004.82 231.806 1002.77 224.198C1000.71 216.59 997.02 209.523 991.947 203.493C986.874 197.463 980.543 192.615 973.4 189.288C966.256 185.962 958.471 184.238 950.59 184.236V217.799C963.277 217.799 972.965 229.255 970.773 241.807L1003.84 247.535ZM596.014 447.5C599.281 447.5 601.898 450.141 601.898 453.385H568.336C568.336 468.645 580.709 481.063 596.014 481.063V447.5ZM799.738 176.651C798.904 181.721 799.183 186.911 800.555 191.862C801.928 196.814 804.361 201.407 807.686 205.324C811.011 209.241 815.148 212.387 819.811 214.545C824.474 216.703 829.55 217.799 834.688 217.799V184.236C834.415 184.237 834.145 184.201 833.897 184.086C833.65 183.971 833.431 183.803 833.255 183.593C833.08 183.384 832.953 183.138 832.884 182.874C832.814 182.61 832.804 182.334 832.853 182.066L799.738 176.651ZM671.776 218.604C671.499 215.364 671.973 212.104 673.203 209.093C674.432 206.083 676.358 203.407 678.824 201.286L656.896 175.845C650.408 181.44 645.341 188.495 642.112 196.431C638.883 204.366 637.585 212.955 638.325 221.49L671.776 218.604Z" fill="black"/>
</svg>
