<svg width="437" height="483" viewBox="0 0 437 483" fill="none" xmlns="http://www.w3.org/2000/svg">
<path d="M17.125 201.986L33.8391 200.554C33.4539 196.256 31.4279 192.271 28.1819 189.428C24.9358 186.585 20.7193 185.102 16.4081 185.286C12.0969 185.47 8.02235 187.308 5.03082 190.418C2.0393 193.528 0.360724 197.671 0.34375 201.986H17.125ZM402.781 242.775L386.984 334.065L420.076 339.793L435.851 248.503L402.781 242.775ZM246.357 448.469H142.335V482.031H246.357V448.469ZM121.952 429.741L103.783 219.573L70.3327 222.459L88.5236 432.627L121.952 429.741ZM386.984 334.065C375.64 399.624 316.525 448.469 246.357 448.469V482.031C331.964 482.031 405.801 422.312 420.076 339.793L386.984 334.065ZM246.581 87.1125L231.746 177.619L264.861 183.034L279.696 92.5496L246.581 87.1125ZM110.832 202.254L143.029 174.509L121.102 149.091L88.9488 176.836L110.832 202.254ZM201.585 84.2485L212.235 43.2127L179.746 34.7997L169.096 75.8131L201.585 84.2485ZM228.3 35.1577L231.545 36.2094L241.815 4.25787L238.57 3.20624L228.3 35.1577ZM185.452 125.508C192.442 112.441 197.857 98.591 201.585 84.2485L169.096 75.8131C166.037 87.5966 161.591 98.9756 155.85 109.711L185.452 125.508ZM231.545 36.2094C234.737 37.1769 237.634 38.9354 239.965 41.3215C242.296 43.7076 243.987 46.644 244.88 49.8581L277.369 41.4451C275.057 32.7525 270.585 24.7854 264.369 18.2839C258.153 11.7825 250.395 6.95769 241.815 4.25787L231.545 36.2094ZM212.235 43.2127C212.681 41.6011 213.472 40.1059 214.554 38.8308C215.636 37.5558 216.983 36.5315 218.5 35.829L203.934 5.60037C192.03 11.3284 183.08 21.9341 179.746 34.7997L212.235 43.2127ZM218.5 35.829C221.562 34.3664 225.067 34.1263 228.3 35.1577L238.57 3.20624C227.144 -0.456106 214.748 0.400708 203.934 5.60037L218.5 35.829ZM266.696 218.767H382.598V185.205H266.696V218.767ZM55.5876 451.959L33.8391 200.554L0.410875 203.44L22.1146 454.846L55.5876 451.959ZM33.9062 454.353V201.986H0.34375V454.353H33.9062ZM22.1146 454.846C22.0464 454.032 22.1703 453.214 22.4353 452.442C22.7004 451.67 23.123 450.962 23.6764 450.363C24.2298 449.763 24.9018 449.285 25.6499 448.959C26.3979 448.633 27.2056 448.466 28.0216 448.469V482.031C44.2659 482.031 56.9749 468.114 55.5876 451.959L22.1146 454.846ZM279.696 92.5496C282.486 75.5386 281.694 58.1322 277.369 41.4451L244.88 49.8805C248.034 62.0373 248.613 74.7188 246.581 87.1125L279.696 92.5496ZM142.335 448.469C137.212 448.46 132.277 446.532 128.504 443.066C124.732 439.599 122.394 434.845 121.952 429.741L88.5236 432.627C89.6879 446.101 95.86 458.648 105.822 467.794C115.784 476.94 128.812 482.02 142.335 482.031V448.469ZM143.029 174.509C158.244 161.397 174.623 145.802 185.475 125.508L155.85 109.711C148.108 124.233 135.78 136.472 121.102 149.091L143.029 174.509ZM435.851 248.503C437.198 240.739 436.831 232.774 434.776 225.166C432.721 217.558 429.028 210.492 423.955 204.462C418.882 198.431 412.551 193.583 405.407 190.257C398.263 186.93 390.479 185.206 382.598 185.205V218.767C395.285 218.767 404.973 230.223 402.781 242.775L435.851 248.503ZM28.0216 448.469C31.2884 448.469 33.9062 451.109 33.9062 454.353H0.34375C0.34375 469.613 12.7171 482.031 28.0216 482.031V448.469ZM231.746 177.619C230.912 182.689 231.191 187.88 232.563 192.831C233.935 197.782 236.369 202.375 239.694 206.292C243.019 210.209 247.156 213.356 251.819 215.514C256.481 217.672 261.558 218.767 266.696 218.767V185.205C266.423 185.206 266.153 185.169 265.905 185.054C265.658 184.939 265.438 184.771 265.263 184.562C265.088 184.352 264.961 184.107 264.892 183.843C264.822 183.579 264.812 183.303 264.861 183.034L231.746 177.619ZM103.783 219.573C103.507 216.332 103.981 213.073 105.21 210.062C106.44 207.051 108.366 204.375 110.832 202.254L88.904 176.814C82.4156 182.408 77.3486 189.464 74.1199 197.399C70.8912 205.335 69.5932 213.924 70.3327 222.459L103.783 219.573Z" fill="black"/>
</svg>
